<svg xmlns="http://www.w3.org/2000/svg" width="124" height="122" viewBox="0 0 124 122">
  <g fill="none">
    <g transform="translate(2.659 2.383)">
      <g fill="#F3DDB9">
        <path d="M25.507501,24.7624258 C27.7424016,19.5485938 30.474269,14.6068789 34.1427836,10.5560977 C35.6266745,8.91696094 37.2171618,7.47583594 38.9205302,6.22819531 C37.8374035,5.57625781 36.6073138,5.08754297 35.2677271,4.79064453 C32.0775673,4.08390234 25.5580195,3.91758203 17.7431189,10.7424336 C14.1633138,13.8686836 8.86007797,19.8278594 5.08545029,26.0920352 C-0.0239298246,34.5729414 -1.16192593,41.4332969 1.70312671,46.4839063 C5.20123197,52.6487188 10.5071267,54.2287617 14.790807,54.6181133 C15.7857076,50.8082344 17.1410058,47.2506953 18.6514854,43.288793 C19.7000468,40.5385508 20.7834152,37.6934727 21.9078752,34.3634922 C22.9907602,31.1543203 24.1592125,27.9086914 25.507501,24.7624258 Z"/>
        <path d="M59.4619883,77.1028086 C55.0407719,77.1028086 51.0887251,73.678707 49.5941988,72.2066055 C48.0948382,70.7295 44.6059181,66.8150156 44.6059181,62.3908477 C44.6059181,58.7720703 46.4349786,56.0203984 49.7546979,54.6443242 C51.9671189,53.7255117 54.779961,53.3506953 59.4617466,53.3506953 C64.1435322,53.3506953 66.9556491,53.72575 69.1687953,54.6443242 C72.4889981,56.0203984 74.3170916,58.7715938 74.3170916,62.3908477 C74.3170916,66.8150156 70.8291384,70.7292617 69.3292943,72.2066055 C67.8354932,73.6789453 63.882963,77.1028086 59.4619883,77.1028086 Z M38.9210136,6.22819531 C37.2174035,7.47583594 35.6269162,8.91719922 34.1432671,10.5560977 C30.4745107,14.6068789 27.742885,19.5485937 25.5072593,24.7624258 C24.1594542,27.9089297 22.9912437,31.1547969 21.908117,34.3634922 C20.7836569,37.6937109 19.7002885,40.5383125 18.6517271,43.288793 C17.141731,47.2514102 15.786191,50.8087109 14.7910487,54.6181133 C13.7381365,58.6488789 13.0893723,62.961293 13.0893723,68.333582 C13.0893723,74.3323125 14.2554074,79.6252539 16.5628226,84.1108984 C16.9935595,84.9520313 17.4656296,85.7645703 17.9773411,86.5475625 C20.8300663,90.9107305 24.9351189,94.4046484 30.1803431,96.9325742 C39.0899727,101.225449 49.6647797,102.027504 57.4733957,102.128773 L59.4619883,99.2925117 L61.5641871,102.127105 C69.3614425,102.019641 79.8782378,101.20448 88.7433918,96.9323359 C93.9881326,94.4044102 98.0943938,90.9104922 100.944943,86.5473242 C101.456655,85.764332 101.92945,84.9522695 102.361637,84.1106602 C104.667361,79.6254922 105.834363,74.3325508 105.834363,68.3333438 C105.834363,62.9608164 105.185115,58.6484023 104.131478,54.617875 C103.136819,50.8084727 101.780554,47.2511719 100.270074,43.2885547 C99.2232047,40.5383125 98.1381442,37.6932344 97.0141676,34.3632539 C94.1367875,25.8375508 90.6621287,17.051168 84.7799844,10.5558594 C83.2960936,8.91672266 81.7051228,7.47512109 80.0010292,6.22843359 C74.4333567,2.15453906 67.6580741,0.161792969 59.4619883,0.161792969 C51.2656608,0.161792969 44.4898947,2.15453906 38.9210136,6.22819531 Z"/>
        <path d="M97.0151345,34.3634922 C98.1391111,37.6937109 99.2241715,40.5383125 100.271041,43.288793 C101.781037,47.2514102 103.137544,50.8087109 104.132444,54.6181133 C108.416366,54.2287617 113.722986,52.6484805 117.22085,46.4839062 C120.086144,41.4330586 118.94839,34.5729414 113.837801,26.0920352 C110.063173,19.8278594 104.759938,13.869875 101.180374,10.7424336 C93.3657154,3.91805859 86.8461676,4.08390234 83.6552827,4.79064453 C82.3156959,5.08754297 81.0851228,5.57625781 80.0019961,6.22867187 C81.7060897,7.47535937 83.2970604,8.91719922 84.7809513,10.5560977 C90.6628538,17.0514063 94.1377544,25.8377891 97.0151345,34.3634922 Z"/>
      </g>
      <g transform="translate(16.437 53.137)">
        <path fill="#6C686F" d="M52.7323899,1.50760547 C50.5194854,0.588792969 47.7076101,0.213976562 43.0253411,0.213976562 C38.344039,0.213976562 35.5309552,0.58903125 33.3182924,1.50760547 C29.9985731,2.88367969 28.1695127,5.634875 28.1695127,9.25412891 C28.1695127,13.6782969 31.658191,17.592543 33.1577934,19.0698867 C34.652078,20.5422266 38.6043665,23.9660898 43.0255828,23.9660898 C47.4463158,23.9660898 51.398846,20.5419883 52.8933723,19.0698867 C54.3929747,17.5927812 57.8811696,13.6782969 57.8811696,9.25412891 C57.8806862,5.634875 56.0525926,2.88367969 52.7323899,1.50760547 Z"/>
        <path fill="#4014EC" d="M41.0365068 48.9920547C33.2278908 48.8905469 22.6530838 48.0884922 13.7434542 43.7958555 8.49847173 41.2679297 4.39317739 37.7740117 1.54045224 33.4108437 1.02874074 32.6278516.556670565 31.8157891.125933723 30.9741797-1.00601949 54.6905508 17.799922 58.5843047 37.1502066 59.1001836L37.1458558 57.6016328 33.5423626 52.9468086 39.6476101 50.9716953 41.0365068 48.9920547zM45.12754 48.9901484L46.8178558 51.2693086 52.5078363 52.9468086 48.7462612 58.0824844 48.7704327 59.1032812C68.1661598 58.6016992 87.0593606 54.7439258 85.9254737 30.9739414 85.4932865 31.8150742 85.0202495 32.6276133 84.5087797 33.4106055 81.6577466 37.7737734 77.5517271 41.2676914 72.3072281 43.7956172 63.4415906 48.0677617 52.925037 48.8826836 45.12754 48.9901484z"/>
      </g>
      <polygon fill="#F8E71C" points="63.255 104.406 61.564 102.127 59.462 99.292 57.473 102.129 56.084 104.108 49.979 106.084 53.583 110.738 53.587 112.237 53.601 117.073 59.205 115.134 65.323 117.073 65.207 112.24 65.183 111.219 68.944 106.084"/>
    </g>
    <g fill="#000003">
      <path d="M14.1236725,37.7003828 C12.761848,37.2900625 11.3197739,38.0446992 10.9028148,39.3866992 L10.8687329,39.4953555 C10.4573333,40.8395 11.229614,42.25775 12.5933723,42.6630664 C12.8413723,42.7369336 13.0920312,42.7719609 13.3388226,42.7719609 C14.4466043,42.7719609 15.4707524,42.0623594 15.8067368,40.9629297 L15.8342924,40.8752422 C16.2512515,39.5330039 15.4852554,38.111418 14.1236725,37.7003828 Z"/>
      <path d="M118.713442,27.1762148 C114.797411,20.6787617 109.280499,14.4817813 105.54938,11.2220938 C96.875423,3.64808594 89.4204366,3.88064844 85.7487797,4.69294922 C84.7388928,4.91669531 83.7739649,5.23313281 82.8636647,5.63749609 C77.1224405,1.85740234 70.2695673,0.0023828125 62.1208577,0.0023828125 C53.9711813,0.0023828125 47.1178246,1.85740234 41.3773255,5.63749609 C40.4672671,5.23337109 39.5023392,4.91693359 38.4922105,4.6931875 C34.8205536,3.87993359 27.3660507,3.64784766 18.6918519,11.2225703 C14.9609747,14.4810664 9.44406238,20.6778086 5.52754776,27.1769297 C-0.0858089669,36.49325 -1.23516569,44.2087969 2.11186745,50.1086406 C4.83624172,54.9097695 8.93065887,57.9206914 14.3056842,59.0896992 C13.5904483,62.5269063 13.1696218,66.2655391 13.1696218,70.7166328 C13.1696218,76.8578555 14.329614,82.3297461 16.6201092,87.0391367 C16.3426199,95.4583281 18.5122573,102.18048 23.0763275,107.02593 C30.4220585,114.824398 42.926963,116.61532 53.6741131,117.074012 L53.6816062,119.463258 C53.6842651,120.286043 54.0905887,121.056883 54.7722261,121.531777 C55.4541053,122.006672 56.3269396,122.126766 57.1144483,121.854172 L61.8999298,120.198355 L67.1925302,121.875855 C67.450924,121.957824 67.7170526,121.997855 67.981731,121.997855 C68.5311501,121.997855 69.0735595,121.824625 69.5250838,121.492223 C70.1936686,120.999934 70.5794464,120.218609 70.5598674,119.396062 L70.5045146,117.076871 C81.2859883,116.621039 93.8109552,114.828449 101.159828,107.03284 C105.728733,102.186199 107.900788,95.4604727 107.622815,87.0362773 C109.913068,82.3278398 111.072819,76.8569023 111.072819,70.7166328 C111.072819,66.2655391 110.65175,62.5269062 109.936273,59.0894609 C115.311057,57.9204531 119.405715,54.9095312 122.130573,50.1081641 C125.476639,44.2083203 124.327041,36.4930117 118.713442,27.1762148 Z M85.5162495,14.6318984 C91.0868226,20.7833672 94.4369981,29.281668 97.2271189,37.5488359 C98.3530292,40.8842969 99.4332554,43.7215117 100.477466,46.465082 L100.516624,46.5682578 C103.532507,54.4803867 105.914854,60.7300273 105.914854,70.7163945 C105.914854,77.3432344 104.408242,83.0078945 101.435867,87.5535859 C98.8439532,91.5207305 95.0872125,94.7094102 90.2698246,97.0314609 C83.9576686,100.073121 75.8490838,101.682949 65.5133333,101.942199 L64.6994776,100.845152 L64.6994776,81.734043 C68.9311891,80.7906875 72.3717661,77.8052617 73.8116647,76.3874883 C75.5387212,74.6863984 79.555306,70.1492852 79.555306,64.7734219 C79.555306,60.1328945 77.1028616,56.4552617 72.8293333,54.6843555 C70.2763353,53.6237656 67.1739181,53.1910469 62.1210994,53.1910469 C57.0675556,53.1910469 53.9651384,53.6237656 51.4147992,54.6831641 C47.1386121,56.4547852 44.6859259,60.132418 44.6859259,64.7729453 C44.6859259,70.1495234 48.7034776,74.6861602 50.4305341,76.3865352 C51.8689825,77.8040703 55.3083509,80.7902109 59.5422378,81.7335664 L59.5422378,100.881133 L58.7975127,101.943152 C48.4269552,101.688191 40.294924,100.077648 33.9716491,97.0305078 C29.1552281,94.7091719 25.3977622,91.5200156 22.8034308,87.5523945 C19.8327485,83.0069414 18.3266199,77.3422813 18.3266199,70.7154414 C18.3266199,60.7278828 20.7077583,54.4787188 23.723883,46.5649219 C24.7257934,43.9376328 25.8608889,40.959832 27.0133879,37.5481211 C29.8052008,29.2795234 33.1563431,20.7800313 38.7259493,14.6304688 C44.5401715,8.20759766 52.1926394,5.085875 62.1213411,5.085875 C72.0478674,5.08658984 79.700577,8.20878906 85.5162495,14.6318984 Z M62.1208577,76.9436367 C58.5671579,76.9436367 55.0651852,73.7652031 54.0760858,72.7908711 C53.0828772,71.8132031 49.8434074,68.3452578 49.8434074,64.7734219 C49.8434074,62.1694844 51.0442495,60.3516367 53.4154776,59.3694414 C55.2861131,58.5924063 57.8084133,58.2752539 62.1210994,58.2752539 C66.4340273,58.2752539 68.9558441,58.592168 70.8288967,59.3703945 C73.1977076,60.3516367 74.398308,62.1694844 74.398308,64.7734219 C74.398308,68.3447813 71.1590799,71.8132031 70.1670799,72.7906328 C69.1770136,73.7649648 65.6721404,76.9436367 62.1208577,76.9436367 Z M6.6128499,47.6267031 C4.22905263,43.424375 5.35568811,37.417543 9.96157505,29.7730039 C13.5935906,23.7456797 18.6812164,18.0243086 22.1116413,15.0281602 C28.4426511,9.50003516 33.6368733,9.08637891 36.5618713,9.50885156 C35.9875556,10.0642852 35.425809,10.6414023 34.8783236,11.2461602 C31.3478285,15.1442031 28.6614035,19.7692422 26.4533333,24.6528164 C21.9651618,25.2044375 17.6094503,28.8070117 14.8198129,32.3192773 C13.9416608,33.4249023 14.1386589,35.0225781 15.2599766,35.8877773 C15.7318051,36.2521094 16.2918596,36.4286758 16.8482885,36.4286758 C17.6138012,36.4286758 18.3715789,36.0941289 18.8803899,35.4538672 C20.4133489,33.5237891 22.1914074,31.9475586 23.8901832,30.9293828 C23.2684912,32.5994961 22.6825731,34.2765195 22.1198596,35.9432969 C20.9985419,39.2630313 19.9299181,42.0661719 18.8953762,44.779957 C17.6473996,48.0546563 16.5028772,51.0612891 15.569614,54.1579922 C11.5339337,53.3311563 8.65413645,51.2240352 6.6128499,47.6267031 Z M26.8555478,103.566324 C24.7185419,101.297648 23.2638986,98.5238164 22.4698635,95.1907383 C25.044616,97.731293 28.1332554,99.8767773 31.7062924,101.599074 C37.0034854,104.151305 43.3489981,105.790203 50.9432125,106.556039 C50.5893411,106.861277 50.3188616,107.257301 50.1755244,107.712656 C49.9280078,108.498746 50.0819805,109.354176 50.5881326,110.008258 L52.0548616,111.90307 C42.7780663,111.370273 32.578885,109.642258 26.8555478,103.566324 Z M62.653115,115.096516 C62.3961715,115.015262 62.1298012,114.974516 61.8636725,114.974516 C61.5745809,114.974516 61.285731,115.02241 61.0094503,115.117961 L58.8277271,115.872836 L58.8192671,113.113062 C58.8178168,112.558344 58.6316959,112.019828 58.2908772,111.57877 L56.8882027,109.767117 L59.5475556,108.906922 C60.0817466,108.733691 60.5443899,108.393426 60.8644211,107.937117 L62.1795945,106.062082 L63.8312359,108.289773 C64.1633528,108.737742 64.6346979,109.066094 65.1742066,109.225027 L67.3890448,109.878156 L65.7509396,112.114664 C65.4217232,112.564301 65.2505887,113.10782 65.263883,113.662301 L65.2880546,114.686434 C65.2880546,114.687387 65.2880546,114.688816 65.2880546,114.690008 C65.2880546,114.691199 65.2882963,114.692152 65.2882963,114.693105 L65.3180273,115.941461 L62.653115,115.096516 Z M97.381575,103.571805 C91.6836179,109.61557 81.5395478,111.357883 72.2704873,111.898066 L73.6939493,109.954645 C74.1829396,109.287457 74.3134659,108.428453 74.0449201,107.649035 C73.897232,107.219652 73.6352125,106.847219 73.2985029,106.556754 C80.8907836,105.791395 87.2358129,104.152496 92.5351813,101.599074 C96.1091852,99.8763008 99.1980663,97.7305781 101.772335,95.1900234 C100.977817,98.5261992 99.5214815,101.301938 97.381575,103.571805 Z M117.629107,47.6262266 C115.587337,51.2242734 112.707298,53.3313945 108.671376,54.1579922 C107.737871,51.0610508 106.592624,48.0539414 105.344164,44.7785273 L105.306214,44.6789258 C104.278682,41.9791992 103.216101,39.1877344 102.120889,35.9435352 C99.1555244,27.1583438 95.5580741,18.0862617 89.3633918,11.2459219 C88.8156647,10.6411641 88.253193,10.0635703 87.6786355,9.508375 C90.6048421,9.08590234 95.7990643,9.49979688 102.129107,15.027207 C105.559774,18.0243086 110.647158,23.7463945 114.279415,29.7725273 C118.885786,37.4173047 120.012421,43.424375 117.629107,47.6262266 Z"/>
      <path d="M50.0413723 50.0307227C52.6659181 50.0307227 54.8065497 47.9205039 54.8065497 45.3334844 54.8065497 42.7464648 52.6659181 40.6364844 50.0413723 40.6364844 47.4173099 40.6364844 45.2766784 42.7467031 45.2766784 45.3334844 45.2769201 47.9205039 47.4170682 50.0307227 50.0413723 50.0307227zM74.1275867 40.6364844C71.5030409 40.6364844 69.3626511 42.7467031 69.3626511 45.3334844 69.3626511 47.9205039 71.5030409 50.0307227 74.1275867 50.0307227 76.7523743 50.0307227 78.8925224 47.9205039 78.8925224 45.3334844 78.8925224 42.7464648 76.7523743 40.6364844 74.1275867 40.6364844zM69.3138396 31.4176014C69.5018942 31.4683554 69.6887402 31.5217304 69.874861 31.5779647 73.0253796 32.5265624 75.6685375 34.2150233 77.9549234 36.7396132 78.4644595 37.3021952 79.1702685 37.5886093 79.8794614 37.5886093 80.490518 37.5886093 81.1042334 37.3755858 81.5958825 36.9426288 82.6582217 36.0076132 82.750557 34.4006444 81.8020657 33.35316 78.8690911 30.1146796 75.4601788 27.9434608 71.3819566 26.7153593 71.1494264 26.6455429 70.9152041 26.5783475 70.6795316 26.5144882 69.3068299 26.1434843 67.887477 26.9388671 67.5101593 28.2927811 67.1330833 29.6466952 67.9406544 31.0458827 69.3138396 31.4176014z"/>
      <path d="M45.2361697,31.4176014 C45.4242243,31.4683554 45.6110703,31.5217304 45.7971911,31.5779647 C48.9477097,32.5265624 51.5908676,34.2150233 53.8772535,36.7396132 C54.3867896,37.3021952 55.0925986,37.5886093 55.8017915,37.5886093 C56.4128481,37.5886093 57.0265635,37.3755858 57.5182126,36.9426288 C58.5805518,36.0076132 58.6728871,34.4006444 57.7243958,33.35316 C54.7914212,30.1146796 51.3825089,27.9434608 47.3042867,26.7153593 C47.0717564,26.6455429 46.8375342,26.5783475 46.6018617,26.5144882 C45.22916,26.1434843 43.8098071,26.9388671 43.4324894,28.2927811 C43.0554134,29.6466952 43.8629845,31.0458827 45.2361697,31.4176014 Z" transform="rotate(-60 50.86 32.006)"/>
      <path d="M45.8169123 84.5872227C47.2408577 84.5872227 48.3955322 83.4491914 48.3955322 82.0452383L48.3955322 81.9956758C48.3955322 80.5917227 47.2408577 79.4536914 45.8169123 79.4536914 44.3929669 79.4536914 43.2382924 80.5917227 43.2382924 81.9956758L43.2382924 82.0452383C43.2380507 83.4491914 44.3929669 84.5872227 45.8169123 84.5872227zM47.0286316 92.2603555L47.0286316 92.3287422C47.0286316 93.7326953 48.1830643 94.8707266 49.6072515 94.8707266 51.0314386 94.8707266 52.1858713 93.7326953 52.1858713 92.3287422L52.1858713 92.2603555C52.1858713 90.8564023 51.0314386 89.7183711 49.6072515 89.7183711 48.1828226 89.7181328 47.0286316 90.8561641 47.0286316 92.2603555zM36.4240936 85.6475742C34.9999064 85.6475742 33.8454737 86.7856055 33.8454737 88.1895586L33.8454737 88.2579453C33.8454737 89.6618984 34.9999064 90.7999297 36.4240936 90.7999297 37.8482807 90.7999297 39.0027135 89.6618984 39.0027135 88.2579453L39.0027135 88.1895586C39.0029552 86.7856055 37.8482807 85.6475742 36.4240936 85.6475742zM78.4243197 79.4534531C77.0001326 79.4534531 75.8456998 80.5914844 75.8456998 81.9954375L75.8456998 82.045C75.8456998 83.4489531 77.0001326 84.5869844 78.4243197 84.5869844 79.8485068 84.5869844 81.0029396 83.4489531 81.0029396 82.045L81.0029396 81.9954375C81.0029396 80.5917227 79.8482651 79.4534531 78.4243197 79.4534531zM74.6337388 89.7181328C73.2095517 89.7181328 72.0551189 90.8561641 72.0551189 92.2601172L72.0551189 92.3285039C72.0551189 93.732457 73.2095517 94.8704883 74.6337388 94.8704883 76.0579259 94.8704883 77.2123587 93.732457 77.2123587 92.3285039L77.2123587 92.2601172C77.2123587 90.8561641 76.0581676 89.7181328 74.6337388 89.7181328zM87.816655 90.800168C89.2408421 90.800168 90.3952749 89.6621367 90.3952749 88.2581836L90.3952749 88.1897969C90.3952749 86.7858437 89.2408421 85.6478125 87.816655 85.6478125 86.3924678 85.6478125 85.2380351 86.7858437 85.2380351 88.1897969L85.2380351 88.2581836C85.2380351 89.6616602 86.3924678 90.800168 87.816655 90.800168z"/>
    </g>
  </g>
</svg>
