<svg xmlns="http://www.w3.org/2000/svg" width="35" height="30" viewBox="0 0 35 30">
  <g fill="#000000">
    <path d="M33.5472266,7.65087054 C32.4333789,5.81383929 30.8685645,4.06640625 29.812002,3.14966518 C27.5055566,1.14790179 25.581582,1.19665179 24.6397949,1.40397321 C24.2441309,1.49109375 23.8808008,1.63473214 23.5609473,1.82631696 C21.9176563,0.631741071 19.9185547,0.0465401786 17.5,0.0465401786 C15.0814453,0.0465401786 13.0822754,0.631741071 11.4390527,1.82638393 C11.1191309,1.63479911 10.7558691,1.49109375 10.3602051,1.40404018 C9.41869141,1.19678571 7.49444336,1.14796875 5.18813477,3.14966518 C4.13150391,4.06647321 2.56675781,5.81390625 1.45277344,7.6509375 C-0.0553710937,10.138058 -0.391289062,12.15 0.454316406,13.6310491 C1.48681641,15.4392857 3.05292969,15.9020089 4.31723633,16.0161161 C4.00647461,17.1983705 3.81458984,18.463125 3.81458984,20.0389955 C3.81458984,22.1278125 4.29994141,23.9248661 5.25731445,25.3802679 C6.09888672,26.6598214 7.31048828,27.684442 8.85841797,28.4256696 C11.7184375,29.7951563 15.160127,29.9535268 17.5000684,29.9535268 C19.8400098,29.9535268 23.2817676,29.7951562 26.1417188,28.4256696 C27.6895801,27.684442 28.90125,26.6598214 29.7428223,25.3802679 C30.700127,23.9247991 31.1855469,22.1277455 31.1855469,20.0389955 C31.1855469,18.463192 30.9936621,17.1984375 30.6829004,16.0161161 C31.947207,15.901942 33.5133887,15.4391518 34.5458203,13.6309821 C35.3912891,12.150067 35.0553027,10.138058 33.5472266,7.65087054 Z M4.98189453,13.9491295 C3.86298828,13.9203348 2.953125,13.708125 2.32415039,12.6066295 C1.89745117,11.8592411 2.25121094,10.4436161 3.29485352,8.72256696 C4.2853125,7.08910714 5.70698242,5.50299107 6.6087793,4.72037946 C8.09805664,3.42770089 9.21450195,3.35651786 9.73977539,3.42542411 C8.17660156,5.29212054 7.21847656,7.71810268 6.41723633,10.0767857 C6.08541992,11.0535268 5.76563477,11.887433 5.45624023,12.6940179 C5.29081055,13.1255357 5.13166992,13.5405804 4.98189453,13.9491295 Z M16.1023926,20.8297098 C15.5482031,20.2870982 15.2581543,19.7175 15.2581543,19.4353125 C15.2581543,19.1833259 15.3022461,19.1652455 15.4661035,19.0976786 C15.9332031,18.9051563 16.8505859,18.8829241 17.5,18.8829241 C18.1494141,18.8829241 19.0667969,18.9051563 19.5338965,19.0976786 C19.6977539,19.1651786 19.7418457,19.1833929 19.7418457,19.4353125 C19.7418457,19.7175 19.4518652,20.2870312 18.8976074,20.8297098 C18.3525781,21.3632812 17.7707715,21.6511607 17.4999316,21.6511607 C17.2290918,21.6511607 16.6474219,21.3632812 16.1023926,20.8297098 Z M25.2008887,26.5402902 C23.5567773,27.3274554 21.3803516,27.7544196 18.5711914,27.8389955 L18.5711914,23.5402902 C19.4122852,23.2223438 20.0972461,22.6223437 20.4121094,22.3141071 C20.8547363,21.8807812 21.8842285,20.7327455 21.8842285,19.4353795 C21.8842285,18.3740625 21.3445996,17.5671429 20.3647363,17.1633482 C19.7116309,16.8941518 18.8816113,16.7843304 17.5000684,16.7843304 C16.1185254,16.7843304 15.2885059,16.8941518 14.635332,17.1633482 C13.6555371,17.5671429 13.1158398,18.3739955 13.1158398,19.4353795 C13.1158398,20.7327455 14.1454004,21.8807143 14.587959,22.3141071 C14.9028223,22.6224107 15.5878516,23.2224107 16.428877,23.5402902 L16.428877,27.8389955 C13.6197168,27.7544866 11.443291,27.3275893 9.79917969,26.5402902 C7.21369141,25.3022545 5.95683594,23.1756696 5.95683594,20.0389955 C5.95683594,17.3556027 6.58806641,15.7098214 7.46163086,13.4320312 C7.76330078,12.6455357 8.10509766,11.7541071 8.44983398,10.7393973 C10.3433887,5.16555804 12.3464551,2.14513393 17.5,2.14513393 C22.6535449,2.14513393 24.6566113,5.165625 26.5500977,10.7393973 C26.8947656,11.7541741 27.2366992,12.6455357 27.5383008,13.4320312 C28.4118652,15.7098214 29.0430957,17.3555357 29.0430957,20.0389955 C29.0431641,23.1756696 27.7863086,25.3022545 25.2008887,26.5402902 Z M32.6759863,12.6066295 C32.0469434,13.7082589 31.1370801,13.9202679 30.0181738,13.9491295 C29.8683301,13.5405134 29.7093262,13.1255357 29.5438965,12.6940179 C29.2345703,11.8875 28.9147852,11.0535268 28.5829004,10.0767857 C27.7816602,7.71810268 26.8235352,5.29212054 25.2603613,3.42542411 C25.7856348,3.35665179 26.9021484,3.42770089 28.3914941,4.72044643 C29.293291,5.50292411 30.7148926,7.08897321 31.7053516,8.72243304 C32.7489258,10.4436161 33.1026855,11.859308 32.6759863,12.6066295 Z"/>
    <path d="M13.935127 11.2001786C13.1601367 11.2001786 12.5293848 11.8243527 12.5293848 12.5950446 12.5293848 13.3656696 13.1600684 13.9903795 13.935127 13.9903795 14.7111426 13.9903795 15.3417578 13.3656027 15.3417578 12.5950446 15.3417578 11.8243527 14.7111426 11.2001786 13.935127 11.2001786zM21.0543457 11.1892634C20.2718359 11.1892634 19.6370508 11.8186607 19.6370508 12.5950446 19.6370508 13.3714286 20.2718359 14.0008259 21.0543457 14.0008259 21.8359668 14.0008259 22.4706836 13.3714286 22.4706836 12.5950446 22.470752 11.8186607 21.8359668 11.1892634 21.0543457 11.1892634z"/>
  </g>
</svg>
