<svg xmlns="http://www.w3.org/2000/svg" width="26" height="26" viewBox="0 0 26 26" xmlns:xlink="http://www.w3.org/1999/xlink">
  <defs>
    <path id="a" d="M8.58076118,21.5788989 C8.82455848,21.335126 9.15521856,21.1981759 9.5,21.1981759 L25.1,21.1981759 C25.8179702,21.1981759 26.4,20.6162044 26.4,19.8983062 L26.4,6.89960911 C26.4,6.1817109 25.8179702,5.59973941 25.1,5.59973941 L6.9,5.59973941 C6.18202983,5.59973941 5.6,6.1817109 5.6,6.89960911 L5.6,24.5593613 L8.58076118,21.5788989 Z M10.0384776,23.7979153 L5.21923882,28.6166711 C4.4002845,29.4355433 3,28.8555846 3,27.6975244 L3,6.89960911 C3,4.74591447 4.74608948,3 6.9,3 L25.1,3 C27.2539105,3 29,4.74591447 29,6.89960911 L29,19.8983062 C29,22.0520008 27.2539105,23.7979153 25.1,23.7979153 L10.0384776,23.7979153 Z"/>
  </defs>
  <g fill="none" fill-rule="evenodd" transform="translate(-3 -3)">
    <use fill="#000000" fill-rule="nonzero" xlink:href="#a"/>
  </g>
</svg>
