<svg xmlns="http://www.w3.org/2000/svg" width="142" height="21" viewBox="0 0 142 21">
  <g fill="none" transform="translate(0 1)">
    <g transform="translate(16.018)">
      <ellipse cx="15.975" cy="17.826" fill="#ED1C24" rx="2.641" ry="2.174"/>
      <path fill="#000000" stroke="#000000" stroke-width=".9" d="M22.2091463,19.3478261 C19.9146341,19.3478261 17.75,18.5652174 16.0182927,17.0869565 C14.2865854,18.5652174 12.1219512,19.3478261 9.82743902,19.3478261 C4.50243902,19.3478261 0.216463415,15 0.216463415,9.69565217 C0.216463415,4.34782609 4.54573171,0.0434782609 9.82743902,0.0434782609 C12.1219512,0.0434782609 14.2865854,0.826086957 16.0182927,2.30434783 C17.75,0.826086957 19.9146341,0.0434782609 22.2091463,0.0434782609 C27.5341463,0.0434782609 31.820122,4.39130435 31.820122,9.69565217 C31.820122,15 27.4908537,19.3478261 22.2091463,19.3478261 Z M15.975,14.7826087 C16.2347561,14.7826087 16.4945122,14.8695652 16.6676829,15.0869565 C18.1396341,16.6086957 20.0878049,17.4347826 22.1658537,17.4347826 C26.4085366,17.4347826 29.8719512,13.9565217 29.8719512,9.69565217 C29.8719512,5.43478261 26.4085366,1.95652174 22.1658537,1.95652174 C20.0878049,1.95652174 18.0963415,2.7826087 16.6676829,4.30434783 C16.3213415,4.69565217 15.6286585,4.69565217 15.2823171,4.30434783 C13.8103659,2.7826087 11.8621951,1.95652174 9.78414634,1.95652174 C5.54146341,1.95652174 2.07804878,5.43478261 2.07804878,9.69565217 C2.07804878,13.9565217 5.54146341,17.4347826 9.78414634,17.4347826 C11.8621951,17.4347826 13.8536585,16.6086957 15.2823171,15.0869565 C15.4554878,14.8695652 15.7152439,14.7826087 15.975,14.7826087 Z"/>
      <path fill="#000000" d="M19.0487805,13.0869565 C19.0487805,13.4347826 18.9621951,13.7826087 18.7890244,14.0434783 C18.7457317,14.1304348 18.702439,14.173913 18.6158537,14.2608696 L18.3993902,14.4782609 L16.104878,16.7826087 C16.0182927,16.8695652 15.9317073,16.8695652 15.845122,16.7826087 L13.5506098,14.4782609 L13.3341463,14.2608696 C13.2908537,14.2173913 13.2042683,14.1304348 13.1609756,14.0434783 C12.9878049,13.7826087 12.9012195,13.4347826 12.9012195,13.0869565 C12.9012195,12.173913 13.6371951,11.4347826 14.5463415,11.3913043 C15.1091463,11.3478261 15.6286585,11.6521739 15.975,12.0434783 C16.3213415,11.6086957 16.8408537,11.3478261 17.4036585,11.3913043 C18.3128049,11.4347826 19.0054878,12.173913 19.0487805,13.0869565 Z"/>
    </g>
    <g fill="#000000" transform="translate(0 2.609)">
      <path d="M6.23414634.0434782609C7.05670732.0434782609 7.87926829.217391304 8.6152439.52173913 9.35121951.869565217 10.0439024 1.30434783 10.6067073 1.86956522 11.1695122 2.43478261 11.602439 3.08695652 11.9487805 3.86956522 12.295122 4.60869565 12.4682927 5.43478261 12.4682927 6.30434783 12.4682927 7.17391304 12.295122 7.95652174 11.9920732 8.69565217 11.6457317 9.43478261 11.2128049 10.0869565 10.65 10.6521739 10.0871951 11.2173913 9.43780488 11.6521739 8.70182927 12 7.96585366 12.3478261 7.14329268 12.4782609 6.27743902 12.4782609 5.41158537 12.4782609 4.63231707 12.3043478 3.85304878 12L3.50670732 11.826087 3.50670732 14.7826087C3.50670732 15.2608696 3.33353659 15.6521739 2.98719512 16 2.64085366 16.3478261 2.25121951 16.5217391 1.775 16.5217391 1.29878049 16.5217391.865853659 16.3478261.519512195 16 .173170732 15.6521739.42108547e-14 15.2608696.42108547e-14 14.7826087L.42108547e-14 6.26086957C.42108547e-14 5.39130435.173170732 4.60869565.476219512 3.86956522.779268293 3.13043478 1.21219512 2.47826087 1.775 1.91304348 2.33780488 1.34782609 2.98719512.913043478 3.76646341.565217391 4.54573171.260869565 5.36829268.0869565217 6.23414634.0434782609zM6.23414634 3.43478261C5.8445122 3.43478261 5.45487805 3.52173913 5.15182927 3.65217391 4.8054878 3.7826087 4.50243902 4 4.24268293 4.26086957 3.98292683 4.52173913 3.76646341 4.82608696 3.59329268 5.17391304 3.42012195 5.52173913 3.37682927 5.91304348 3.37682927 6.30434783 3.37682927 6.69565217 3.46341463 7.08695652 3.59329268 7.43478261 3.76646341 7.7826087 3.93963415 8.08695652 4.24268293 8.34782609 4.50243902 8.60869565 4.8054878 8.82608696 5.15182927 9 5.49817073 9.17391304 5.8445122 9.2173913 6.23414634 9.2173913 6.62378049 9.2173913 7.01341463 9.13043478 7.3597561 9 7.70609756 8.82608696 8.00914634 8.65217391 8.26890244 8.34782609 8.52865854 8.08695652 8.74512195 7.7826087 8.875 7.43478261 9.00487805 7.08695652 9.09146341 6.69565217 9.09146341 6.30434783 9.04817073 5.52173913 8.78841463 4.82608696 8.22560976 4.30434783 7.70609756 3.73913043 7.05670732 3.43478261 6.23414634 3.43478261zM51.5615854 8.30434783C51.5615854 7.17391304 51.7780488 6.08695652 52.2109756 5.13043478 52.6439024 4.13043478 53.2067073 3.26086957 53.9426829 2.52173913 54.6786585 1.7826087 55.5445122 1.17391304 56.5402439.739130435 57.5359756.304347826 58.6182927.0869565217 59.7439024.0869565217 61.0426829.0869565217 62.2115854.347826087 63.2939024.913043478 64.3762195 1.47826087 65.3286585 2.2173913 66.0646341 3.13043478 66.2810976 3.43478261 66.3676829 3.73913043 66.3676829 4 66.3676829 4.47826087 66.1945122 4.86956522 65.8481707 5.2173913 65.5018293 5.56521739 65.0689024 5.73913043 64.5926829 5.73913043 64.1164634 5.73913043 63.770122 5.60869565 63.5536585 5.34782609 63.1207317 4.7826087 62.5579268 4.34782609 61.9085366 4 61.2591463 3.65217391 60.5231707 3.47826087 59.7871951 3.47826087 59.1378049 3.47826087 58.5317073 3.60869565 57.9256098 3.86956522 57.3628049 4.13043478 56.8432927 4.47826087 56.4103659 4.91304348 55.977439 5.34782609 55.6310976 5.86956522 55.3713415 6.43478261 55.1115854 7 54.9817073 7.60869565 54.9817073 8.26086957 54.9817073 8.91304348 55.1115854 9.56521739 55.3713415 10.173913 55.6310976 10.7826087 55.977439 11.2608696 56.4103659 11.7391304 56.8432927 12.2173913 57.3628049 12.5217391 57.9256098 12.7826087 58.4884146 13.0434783 59.1378049 13.173913 59.7871951 13.173913 60.5664634 13.173913 61.2591463 13 61.9085366 12.6521739 62.5579268 12.3043478 63.1207317 11.8695652 63.5536585 11.3043478 63.8134146 11.0434783 64.1597561 10.9565217 64.5926829 10.9565217 65.0689024 10.9565217 65.5018293 11.1304348 65.8481707 11.4782609 66.1945122 11.826087 66.3676829 12.2173913 66.3676829 12.6086957 66.3676829 13 66.2810976 13.3043478 66.0646341 13.5652174 65.3286585 14.4782609 64.3762195 15.2173913 63.2939024 15.7826087 62.2115854 16.3478261 60.9993902 16.6086957 59.7439024 16.6086957 58.6182927 16.6086957 57.5359756 16.3913043 56.5402439 15.9565217 55.5445122 15.5217391 54.6786585 14.9565217 53.9426829 14.173913 53.2067073 13.4347826 52.6439024 12.5652174 52.2109756 11.5652174 51.7780488 10.5217391 51.5615854 9.43478261 51.5615854 8.30434783zM79.2689024.130434783C79.7018293.130434783 80.1347561.304347826 80.4810976.608695652 80.827439.956521739 81.0439024 1.34782609 81.0439024 1.82608696L81.0439024 14.826087C81.0439024 15.0434783 81.0006098 15.2608696 80.9140244 15.4782609 80.827439 15.6956522 80.697561 15.8695652 80.5243902 16.0434783 80.3512195 16.2173913 80.1780488 16.3478261 79.9615854 16.4347826 79.745122 16.5217391 79.5286585 16.5652174 79.3121951 16.5652174 78.922561 16.5652174 78.5329268 16.3913043 78.1865854 16.0434783 77.8402439 15.6956522 77.6670732 15.3043478 77.6670732 14.826087L77.6670732 10.6086957 72.0823171 10.6086957 72.0823171 14.826087C72.0823171 15.3043478 71.9091463 15.6956522 71.5628049 16.0434783 71.2164634 16.3913043 70.8268293 16.5652174 70.3506098 16.5652174 69.8310976 16.5652174 69.3981707 16.3913043 69.0518293 16.0869565 68.7054878 15.7826087 68.5323171 15.3478261 68.5323171 14.8695652L68.5323171 1.86956522C68.5323171 1.34782609 68.7054878.913043478 69.095122.608695652 69.4414634.304347826 69.8743902.130434783 70.3506098.130434783 70.8268293.130434783 71.2164634.304347826 71.5628049.652173913 71.9091463 1 72.0823171 1.39130435 72.0823171 1.86956522L72.0823171 7.13043478 77.6670732 7.13043478 77.6670732 1.86956522C77.6670732 1.39130435 77.8402439 1 78.1865854.652173913 78.4896341.304347826 78.8359756.130434783 79.2689024.130434783zM95.8067073.0434782609C96.6292683.0434782609 97.4518293.217391304 98.1878049.52173913 98.9237805.869565217 99.6164634 1.30434783 100.179268 1.86956522 100.742073 2.43478261 101.175 3.08695652 101.521341 3.86956522 101.867683 4.60869565 102.040854 5.43478261 102.040854 6.30434783 102.040854 7.17391304 101.867683 7.95652174 101.564634 8.69565217 101.261585 9.43478261 100.785366 10.0869565 100.222561 10.6521739 99.6597561 11.2173913 99.0103659 11.6521739 98.2743902 12 97.5384146 12.3478261 96.7158537 12.4782609 95.85 12.4782609 94.9841463 12.4782609 94.204878 12.3043478 93.4256098 12L93.0792683 11.826087 93.0792683 14.7826087C93.0792683 15.2608696 92.9060976 15.6521739 92.5597561 16 92.2134146 16.3478261 91.8237805 16.5217391 91.347561 16.5217391 90.8713415 16.5217391 90.4384146 16.3478261 90.0920732 16 89.7457317 15.6521739 89.572561 15.2608696 89.572561 14.7826087L89.572561 6.26086957C89.572561 5.39130435 89.7457317 4.60869565 90.0487805 3.86956522 90.3518293 3.13043478 90.7847561 2.47826087 91.347561 1.91304348 91.9103659 1.34782609 92.5597561.913043478 93.3390244.565217391 94.1182927.260869565 94.9408537.0869565217 95.8067073.0434782609zM95.8067073 3.43478261C95.4170732 3.43478261 95.027439 3.52173913 94.7243902 3.65217391 94.3780488 3.7826087 94.075 4 93.8152439 4.26086957 93.5554878 4.52173913 93.3390244 4.82608696 93.1658537 5.17391304 92.9926829 5.52173913 92.9493902 5.91304348 92.9493902 6.30434783 92.9493902 6.69565217 93.0359756 7.08695652 93.1658537 7.43478261 93.2957317 7.7826087 93.5121951 8.08695652 93.8152439 8.34782609 94.075 8.60869565 94.3780488 8.82608696 94.7243902 9 95.0707317 9.17391304 95.4170732 9.2173913 95.8067073 9.2173913 96.1963415 9.2173913 96.5859756 9.13043478 96.9323171 9 97.2786585 8.82608696 97.5817073 8.65217391 97.8414634 8.34782609 98.1012195 8.08695652 98.3176829 7.7826087 98.447561 7.43478261 98.577439 7.08695652 98.6640244 6.69565217 98.6640244 6.30434783 98.6207317 5.52173913 98.3609756 4.82608696 97.7981707 4.30434783 97.3219512 3.73913043 96.6292683 3.43478261 95.8067073 3.43478261zM115.201829 14.2173913C115.375 14.6521739 115.375 15.0869565 115.158537 15.5217391 114.985366 15.9565217 114.639024 16.2608696 114.206098 16.4782609 113.773171 16.6521739 113.340244 16.6521739 112.864024 16.4347826 112.431098 16.2173913 112.128049 15.9130435 111.954878 15.4347826L111.738415 14.8695652 105.37439 14.8695652 105.157927 15.4347826C104.984756 15.9130435 104.681707 16.2173913 104.24878 16.4347826 103.815854 16.6521739 103.382927 16.6521739 102.95 16.4782609 102.517073 16.3043478 102.170732 15.9565217 101.997561 15.5217391 101.82439 15.0869565 101.781098 14.6521739 101.954268 14.2173913L106.97622 1.26086957C107.106098.956521739 107.322561.695652174 107.62561.47826087 107.928659.260869565 108.231707.130434783 108.578049.130434783 108.92439.130434783 109.227439.217391304 109.530488.434782609 109.833537.652173913 110.05.913043478 110.179878 1.26086957L115.201829 14.2173913zM106.456707 12.0869565L110.69939 12.0869565 108.578049 6.60869565 106.456707 12.0869565zM126.977439 13.0434783C127.453659 13.0434783 127.843293 13.2173913 128.189634 13.5652174 128.535976 13.9130435 128.709146 14.3043478 128.709146 14.7826087 128.709146 15.2608696 128.535976 15.6956522 128.189634 16.0434783 127.843293 16.3913043 127.453659 16.5652174 126.977439 16.5652174L119.098171 16.5652174C118.621951 16.5652174 118.189024 16.3913043 117.885976 16.0434783 117.539634 15.6956522 117.366463 15.3043478 117.366463 14.7826087L117.366463 1.82608696C117.366463 1.34782609 117.539634.956521739 117.885976.608695652 118.232317.260869565 118.665244.0869565217 119.141463.0869565217 119.57439.0869565217 119.964024.260869565 120.353659.608695652 120.7.956521739 120.873171 1.34782609 120.873171 1.82608696L120.873171 13.0434783 126.977439 13.0434783zM136.718293 13.173913C137.107927 13.0869565 137.454268 12.9565217 137.757317 12.7391304 138.017073 12.5217391 138.190244 12.173913 138.233537 11.7391304 138.233537 11.3478261 138.060366 11 137.80061 10.7826087 137.540854 10.5652174 137.194512 10.4347826 136.804878 10.3478261L135.029878 10.0434783C134.380488 9.95652174 133.77439 9.7826087 133.211585 9.56521739 132.64878 9.34782609 132.129268 9 131.653049 8.52173913 131.176829 8.08695652 130.830488 7.52173913 130.570732 6.91304348 130.310976 6.30434783 130.181098 5.65217391 130.181098 4.95652174 130.181098 4.30434783 130.310976 3.65217391 130.570732 3.04347826 130.830488 2.43478261 131.176829 1.95652174 131.653049 1.52173913 132.085976 1.08695652 132.64878.782608696 133.254878.52173913 133.687805.347826087 134.120732.217391304 134.596951.173913043 134.986585.0869565217 135.419512.0869565217 135.809146.0869565217 136.285366.0869565217 136.761585.130434783 137.15122.217391304 137.843902.347826087 138.493293.565217391 139.09939.913043478 139.402439 1 139.878659 1.39130435 140.528049 2 140.614634 2.08695652 140.70122 2.2173913 140.787805 2.39130435 140.87439 2.56521739 140.960976 2.69565217 141.004268 2.86956522 141.090854 3.34782609 141.047561 3.7826087 140.787805 4.17391304 140.528049 4.56521739 140.181707 4.82608696 139.705488 4.95652174 139.315854 5.04347826 139.012805 5 138.709756 4.86956522 138.45 4.73913043 138.190244 4.52173913 137.930488 4.30434783 137.670732 4 137.367683 3.7826087 137.107927 3.65217391 136.848171 3.52173913 136.458537 3.43478261 135.939024 3.43478261 135.419512 3.43478261 135.029878 3.47826087 134.683537 3.60869565 134.337195 3.73913043 134.077439 3.91304348 133.904268 4.13043478 133.687805 4.39130435 133.60122 4.65217391 133.60122 5.04347826 133.60122 5.47826087 133.731098 5.82608696 134.034146 6.13043478 134.337195 6.43478261 134.726829 6.56521739 135.203049 6.65217391L136.848171 6.86956522C137.670732 7 138.45 7.2173913 139.185976 7.52173913 139.921951 7.82608696 140.441463 8.17391304 140.787805 8.56521739 141.134146 8.95652174 141.393902 9.39130435 141.52378 9.82608696 141.653659 10.2608696 141.740244 10.8695652 141.740244 11.5652174 141.740244 12.2173913 141.567073 12.826087 141.35061 13.4347826 141.090854 14.0434783 140.744512 14.5652174 140.268293 15.0434783 139.835366 15.4782609 139.272561 15.8695652 138.666463 16.1304348 138.060366 16.3913043 137.410976 16.5217391 136.761585 16.5652174L136.371951 16.6086957C136.19878 16.6086957 135.982317 16.6086957 135.809146 16.6086957 135.332927 16.6086957 134.856707 16.5652174 134.467073 16.4782609 133.77439 16.3478261 133.125 16.1304348 132.518902 15.7826087 131.609756 15.2608696 130.87378 14.5652174 130.354268 13.6086957 130.267683 13.4782609 130.22439 13.3478261 130.181098 13.173913 130.137805 13 130.094512 12.826087 130.094512 12.6956522 130.094512 12.2173913 130.267683 11.7826087 130.614024 11.4782609 130.960366 11.1304348 131.35 10.9565217 131.82622 10.9565217 132.215854 10.9565217 132.518902 11.0434783 132.735366 11.2608696 132.995122 11.4782609 133.168293 11.6956522 133.384756 12 133.60122 12.3478261 133.860976 12.6086957 134.164024 12.826087 134.510366 13.0434783 134.770122 13.173913 134.986585 13.2173913 135.203049 13.2608696 135.419512 13.3043478 135.679268 13.3043478 135.895732 13.2173913 136.242073 13.2173913 136.718293 13.173913z"/>
    </g>
  </g>
</svg>
