<svg xmlns="http://www.w3.org/2000/svg" width="37" height="34" viewBox="0 0 37 34">
  <g fill="none" fill-rule="evenodd">
    <g fill="#000000" fill-rule="nonzero" transform="translate(0 7)">
      <path d="M29.7132578,6.88578348 C28.726707,5.23245536 27.3407285,3.65976562 26.404916,2.83469866 C24.3620645,1.03311161 22.6579727,1.07698661 21.8238184,1.26357589 C21.473373,1.34198437 21.1515664,1.47125893 20.8682676,1.64368527 C19.4127812,0.568566964 17.6421484,0.0418861607 15.5,0.0418861607 C13.3578516,0.0418861607 11.5871582,0.568566964 10.1317324,1.64374554 C9.84837305,1.4713192 9.52662695,1.34198437 9.17618164,1.26363616 C8.34226953,1.07710714 6.63793555,1.03317187 4.59520508,2.83469866 C3.65933203,3.65982589 2.27341406,5.23251562 1.28674219,6.88584375 C-0.0490429687,9.12425223 -0.346570312,10.935 0.402394531,12.2679442 C1.31689453,13.8953571 2.70402344,14.311808 3.82383789,14.4145045 C3.5485918,15.4785335 3.37863672,16.6168125 3.37863672,18.035096 C3.37863672,19.9150312 3.80851953,21.5323795 4.65647852,22.8422411 C5.40187109,23.9938393 6.47500391,24.9159978 7.84602734,25.5831027 C10.3791875,26.8156406 13.427541,26.9581741 15.5000605,26.9581741 C17.5725801,26.9581741 20.6209941,26.8156406 23.1540938,25.5831027 C24.5250566,24.9159978 25.59825,23.9938393 26.3436426,22.8422411 C27.191541,21.5323192 27.6214844,19.914971 27.6214844,18.035096 C27.6214844,16.6168728 27.4515293,15.4785937 27.1762832,14.4145045 C28.2960977,14.3117478 29.6832871,13.8952366 30.5977266,12.2678839 C31.3465703,10.9350603 31.0489824,9.12425223 29.7132578,6.88578348 Z M4.41253516,12.5542165 C3.42150391,12.5283013 2.615625,12.3373125 2.0585332,11.3459665 C1.68059961,10.673317 1.99392969,9.39925446 2.91829883,7.85031027 C3.7955625,6.38019643 5.05475586,4.95269196 5.85349023,4.24834152 C7.17256445,3.0849308 8.16141602,3.02086607 8.6266582,3.0828817 C7.24213281,4.76290848 6.39350781,6.94629241 5.68383789,9.06910714 C5.38994336,9.94817411 5.10670508,10.6986897 4.83266992,11.4246161 C4.68614648,11.8129821 4.54519336,12.1865223 4.41253516,12.5542165 Z M14.2621191,18.7467388 C13.7712656,18.2583884 13.5143652,17.74575 13.5143652,17.4917812 C13.5143652,17.2649933 13.553418,17.248721 13.6985488,17.1879107 C14.1122656,17.0146406 14.9248047,16.9946317 15.5,16.9946317 C16.0751953,16.9946317 16.8877344,17.0146406 17.3014512,17.1879107 C17.446582,17.2486607 17.4856348,17.2650536 17.4856348,17.4917812 C17.4856348,17.74575 17.2287949,18.2583281 16.7378809,18.7467388 C16.2551406,19.2269531 15.7398262,19.4860446 15.4999395,19.4860446 C15.2600527,19.4860446 14.7448594,19.2269531 14.2621191,18.7467388 Z M22.3207871,23.8862612 C20.8645742,24.5947098 18.9368828,24.9789777 16.4487695,25.055096 L16.4487695,21.1862612 C17.1937383,20.9001094 17.800418,20.3601094 18.0792969,20.0826964 C18.4713379,19.6927031 19.3831738,18.659471 19.3831738,17.4918415 C19.3831738,16.5366562 18.9052168,15.8104286 18.0373379,15.4470134 C17.458873,15.2047366 16.7237129,15.1058973 15.5000605,15.1058973 C14.2764082,15.1058973 13.541248,15.2047366 12.9627227,15.4470134 C12.0949043,15.8104286 11.6168867,16.536596 11.6168867,17.4918415 C11.6168867,18.659471 12.5287832,19.6926429 12.9207637,20.0826964 C13.1996426,20.3601696 13.8063828,20.9001696 14.551291,21.1862612 L14.551291,25.055096 C12.0631777,24.9790379 10.1354863,24.5948304 8.67927344,23.8862612 C6.38926953,22.772029 5.27605469,20.8581027 5.27605469,18.035096 C5.27605469,15.6200424 5.83514453,14.1388393 6.60887305,12.0888281 C6.87606641,11.3809821 7.17880078,10.5786964 7.48413867,9.66545759 C9.16128711,4.64900223 10.9354316,1.93062054 15.5,1.93062054 C20.0645684,1.93062054 21.8387129,4.6490625 23.5158008,9.66545759 C23.8210781,10.5787567 24.1239336,11.3809821 24.3910664,12.0888281 C25.1647949,14.1388393 25.7238848,15.6199821 25.7238848,18.035096 C25.7239453,20.8581027 24.6107305,22.772029 22.3207871,23.8862612 Z M28.9415879,11.3459665 C28.3844355,12.337433 27.5785566,12.5282411 26.5875254,12.5542165 C26.4548066,12.1864621 26.3139746,11.8129821 26.1674512,11.4246161 C25.8934766,10.69875 25.6102383,9.94817411 25.3162832,9.06910714 C24.6066133,6.94629241 23.7579883,4.76290848 22.3734629,3.0828817 C22.8387051,3.02098661 23.8276172,3.0849308 25.146752,4.24840179 C25.9454863,4.9526317 27.2046191,6.38007589 28.0818828,7.85018973 C29.0061914,9.39925446 29.3195215,10.6733772 28.9415879,11.3459665 Z"/>
      <path d="M12.342541 10.0801607C11.6561211 10.0801607 11.0974551 10.6419174 11.0974551 11.3355402 11.0974551 12.0291027 11.6560605 12.5913415 12.342541 12.5913415 13.0298691 12.5913415 13.5884141 12.0290424 13.5884141 11.3355402 13.5884141 10.6419174 13.0298691 10.0801607 12.342541 10.0801607zM18.6481348 10.0703371C17.9550547 10.0703371 17.3928164 10.6367946 17.3928164 11.3355402 17.3928164 12.0342857 17.9550547 12.6007433 18.6481348 12.6007433 19.3404277 12.6007433 19.9026055 12.0342857 19.9026055 11.3355402 19.902666 10.6367946 19.3404277 10.0703371 18.6481348 10.0703371z"/>
    </g>
    <circle cx="29" cy="8" r="8" fill="#4014EC"/>
    <path fill="#FFFFFF" d="M29,6.89180581 L30.6622913,5.22951453 C30.9683107,4.92349516 31.4644661,4.92349516 31.7704855,5.22951453 C32.0765048,5.53553391 32.0765048,6.03168934 31.7704855,6.33770872 L30.1081942,8 L31.7704855,9.66229128 C32.0765048,9.96831066 32.0765048,10.4644661 31.7704855,10.7704855 C31.4644661,11.0765048 30.9683107,11.0765048 30.6622913,10.7704855 L29,9.10819419 L27.3377087,10.7704855 C27.0316893,11.0765048 26.5355339,11.0765048 26.2295145,10.7704855 C25.9234952,10.4644661 25.9234952,9.96831066 26.2295145,9.66229128 L27.8918058,8 L26.2295145,6.33770872 C25.9234952,6.03168934 25.9234952,5.53553391 26.2295145,5.22951453 C26.5355339,4.92349516 27.0316893,4.92349516 27.3377087,5.22951453 L29,6.89180581 Z"/>
  </g>
</svg>
