<svg xmlns="http://www.w3.org/2000/svg" width="236" height="34" viewBox="0 0 236 34">
  <g fill="none" transform="translate(0 1)">
    <g transform="translate(26.622)">
      <ellipse cx="26.55" cy="29.413" fill="#ED1C24" rx="4.389" ry="3.587"/>
      <path fill="#FFFFFF" stroke="#FFFFFF" stroke-width="1.5" d="M36.9109756,31.923913 C33.097561,31.923913 29.5,30.6326087 26.6219512,28.1934783 C23.7439024,30.6326087 20.1463415,31.923913 16.3329268,31.923913 C7.48292683,31.923913 0.359756098,24.75 0.359756098,15.9978261 C0.359756098,7.17391304 7.55487805,0.0717391304 16.3329268,0.0717391304 C20.1463415,0.0717391304 23.7439024,1.36304348 26.6219512,3.80217391 C29.5,1.36304348 33.097561,0.0717391304 36.9109756,0.0717391304 C45.7609756,0.0717391304 52.8841463,7.24565217 52.8841463,15.9978261 C52.8841463,24.75 45.6890244,31.923913 36.9109756,31.923913 Z M26.55,24.3913043 C26.9817073,24.3913043 27.4134146,24.5347826 27.7012195,24.8934783 C30.147561,27.4043478 33.3853659,28.7673913 36.8390244,28.7673913 C43.8902439,28.7673913 49.6463415,23.0282609 49.6463415,15.9978261 C49.6463415,8.9673913 43.8902439,3.22826087 36.8390244,3.22826087 C33.3853659,3.22826087 30.0756098,4.59130435 27.7012195,7.10217391 C27.1256098,7.74782609 25.9743902,7.74782609 25.3987805,7.10217391 C22.952439,4.59130435 19.7146341,3.22826087 16.2609756,3.22826087 C9.2097561,3.22826087 3.45365854,8.9673913 3.45365854,15.9978261 C3.45365854,23.0282609 9.2097561,28.7673913 16.2609756,28.7673913 C19.7146341,28.7673913 23.0243902,27.4043478 25.3987805,24.8934783 C25.6865854,24.5347826 26.1182927,24.3913043 26.55,24.3913043 Z"/>
      <path fill="#FFFFFF" d="M31.6585366,21.5934783 C31.6585366,22.1673913 31.5146341,22.7413043 31.2268293,23.1717391 C31.154878,23.3152174 31.0829268,23.3869565 30.9390244,23.5304348 L30.5792683,23.8891304 L26.7658537,27.6913043 C26.6219512,27.8347826 26.4780488,27.8347826 26.3341463,27.6913043 L22.5207317,23.8891304 L22.1609756,23.5304348 C22.0890244,23.4586957 21.945122,23.3152174 21.8731707,23.1717391 C21.5853659,22.7413043 21.4414634,22.1673913 21.4414634,21.5934783 C21.4414634,20.0869565 22.6646341,18.8673913 24.1756098,18.7956522 C25.1109756,18.723913 25.9743902,19.226087 26.55,19.8717391 C27.1256098,19.1543478 27.9890244,18.723913 28.9243902,18.7956522 C30.4353659,18.8673913 31.5865854,20.0869565 31.6585366,21.5934783 Z"/>
    </g>
    <g fill="#FFFFFF" transform="translate(0 4.304)">
      <path d="M10.3609756.0717391304C11.7280488.0717391304 13.095122.358695652 14.3182927.860869565 15.5414634 1.43478261 16.6926829 2.15217391 17.6280488 3.08478261 18.5634146 4.0173913 19.2829268 5.09347826 19.8585366 6.38478261 20.4341463 7.60434783 20.7219512 8.9673913 20.7219512 10.4021739 20.7219512 11.8369565 20.4341463 13.1282609 19.9304878 14.3478261 19.354878 15.5673913 18.6353659 16.6434783 17.7 17.576087 16.7646341 18.5086957 15.6853659 19.226087 14.4621951 19.8 13.2390244 20.373913 11.8719512 20.5891304 10.4329268 20.5891304 8.99390244 20.5891304 7.69878049 20.3021739 6.40365854 19.8L5.82804878 19.5130435 5.82804878 24.3913043C5.82804878 25.1804348 5.5402439 25.826087 4.96463415 26.4 4.38902439 26.973913 3.74146341 27.2608696 2.95 27.2608696 2.15853659 27.2608696 1.43902439 26.973913.863414634 26.4.287804878 25.826087.42108547e-14 25.1804348.42108547e-14 24.3913043L.42108547e-14 10.3304348C.42108547e-14 8.89565217.287804878 7.60434783.791463415 6.38478261 1.29512195 5.16521739 2.01463415 4.08913043 2.95 3.15652174 3.88536585 2.22391304 4.96463415 1.50652174 6.2597561.932608696 7.55487805.430434783 8.92195122.143478261 10.3609756.0717391304zM10.3609756 5.6673913C9.71341463 5.6673913 9.06585366 5.81086957 8.56219512 6.02608696 7.98658537 6.24130435 7.48292683 6.6 7.05121951 7.03043478 6.6195122 7.46086957 6.2597561 7.96304348 5.97195122 8.53695652 5.68414634 9.11086957 5.61219512 9.75652174 5.61219512 10.4021739 5.61219512 11.0478261 5.75609756 11.6934783 5.97195122 12.2673913 6.2597561 12.8413043 6.54756098 13.3434783 7.05121951 13.773913 7.48292683 14.2043478 7.98658537 14.5630435 8.56219512 14.85 9.13780488 15.1369565 9.71341463 15.2086957 10.3609756 15.2086957 11.0085366 15.2086957 11.6560976 15.0652174 12.2317073 14.85 12.8073171 14.5630435 13.3109756 14.276087 13.7426829 13.773913 14.1743902 13.3434783 14.5341463 12.8413043 14.75 12.2673913 14.9658537 11.6934783 15.1097561 11.0478261 15.1097561 10.4021739 15.0378049 9.11086957 14.6060976 7.96304348 13.6707317 7.10217391 12.8073171 6.16956522 11.7280488 5.6673913 10.3609756 5.6673913zM85.6939024 13.7021739C85.6939024 11.8369565 86.0536585 10.0434783 86.7731707 8.46521739 87.4926829 6.81521739 88.4280488 5.38043478 89.6512195 4.16086957 90.8743902 2.94130435 92.3134146 1.93695652 93.9682927 1.21956522 95.6231707.502173913 97.4219512.143478261 99.2926829.143478261 101.45122.143478261 103.393902.573913043 105.192683 1.50652174 106.991463 2.43913043 108.57439 3.65869565 109.797561 5.16521739 110.157317 5.6673913 110.30122 6.16956522 110.30122 6.6 110.30122 7.38913043 110.013415 8.03478261 109.437805 8.60869565 108.862195 9.1826087 108.142683 9.46956522 107.35122 9.46956522 106.559756 9.46956522 105.984146 9.25434783 105.62439 8.82391304 104.904878 7.89130435 103.969512 7.17391304 102.890244 6.6 101.810976 6.02608696 100.587805 5.73913043 99.3646341 5.73913043 98.2853659 5.73913043 97.2780488 5.95434783 96.2707317 6.38478261 95.3353659 6.81521739 94.4719512 7.38913043 93.752439 8.10652174 93.0329268 8.82391304 92.4573171 9.68478261 92.0256098 10.6173913 91.5939024 11.55 91.3780488 12.5543478 91.3780488 13.6304348 91.3780488 14.7065217 91.5939024 15.7826087 92.0256098 16.7869565 92.4573171 17.7913043 93.0329268 18.5804348 93.752439 19.3695652 94.4719512 20.1586957 95.3353659 20.6608696 96.2707317 21.0913043 97.2060976 21.5217391 98.2853659 21.7369565 99.3646341 21.7369565 100.659756 21.7369565 101.810976 21.45 102.890244 20.876087 103.969512 20.3021739 104.904878 19.5847826 105.62439 18.6521739 106.056098 18.2217391 106.631707 18.0782609 107.35122 18.0782609 108.142683 18.0782609 108.862195 18.3652174 109.437805 18.9391304 110.013415 19.5130435 110.30122 20.1586957 110.30122 20.8043478 110.30122 21.45 110.157317 21.9521739 109.797561 22.3826087 108.57439 23.8891304 106.991463 25.1086957 105.192683 26.0413043 103.393902 26.973913 101.379268 27.4043478 99.2926829 27.4043478 97.4219512 27.4043478 95.6231707 27.0456522 93.9682927 26.3282609 92.3134146 25.6108696 90.8743902 24.6782609 89.6512195 23.3869565 88.4280488 22.1673913 87.4926829 20.7326087 86.7731707 19.0826087 86.0536585 17.3608696 85.6939024 15.5673913 85.6939024 13.7021739zM131.742683.215217391C132.462195.215217391 133.181707.502173913 133.757317 1.00434783 134.332927 1.57826087 134.692683 2.22391304 134.692683 3.01304348L134.692683 24.4630435C134.692683 24.8217391 134.620732 25.1804348 134.476829 25.5391304 134.332927 25.8978261 134.117073 26.1847826 133.829268 26.4717391 133.541463 26.7586957 133.253659 26.973913 132.893902 27.1173913 132.534146 27.2608696 132.17439 27.3326087 131.814634 27.3326087 131.167073 27.3326087 130.519512 27.0456522 129.943902 26.4717391 129.368293 25.8978261 129.080488 25.2521739 129.080488 24.4630435L129.080488 17.5043478 119.79878 17.5043478 119.79878 24.4630435C119.79878 25.2521739 119.510976 25.8978261 118.935366 26.4717391 118.359756 27.0456522 117.712195 27.3326087 116.920732 27.3326087 116.057317 27.3326087 115.337805 27.0456522 114.762195 26.5434783 114.186585 26.0413043 113.89878 25.323913 113.89878 24.5347826L113.89878 3.08478261C113.89878 2.22391304 114.186585 1.50652174 114.834146 1.00434783 115.409756.502173913 116.129268.215217391 116.920732.215217391 117.712195.215217391 118.359756.502173913 118.935366 1.07608696 119.510976 1.65 119.79878 2.29565217 119.79878 3.08478261L119.79878 11.7652174 129.080488 11.7652174 129.080488 3.08478261C129.080488 2.29565217 129.368293 1.65 129.943902 1.07608696 130.447561.502173913 131.023171.215217391 131.742683.215217391zM159.228049.0717391304C160.595122.0717391304 161.962195.358695652 163.185366.860869565 164.408537 1.43478261 165.559756 2.15217391 166.495122 3.08478261 167.430488 4.0173913 168.15 5.09347826 168.72561 6.38478261 169.30122 7.60434783 169.589024 8.9673913 169.589024 10.4021739 169.589024 11.8369565 169.30122 13.1282609 168.797561 14.3478261 168.293902 15.5673913 167.502439 16.6434783 166.567073 17.576087 165.631707 18.5086957 164.552439 19.226087 163.329268 19.8 162.106098 20.373913 160.739024 20.5891304 159.3 20.5891304 157.860976 20.5891304 156.565854 20.3021739 155.270732 19.8L154.695122 19.5130435 154.695122 24.3913043C154.695122 25.1804348 154.407317 25.826087 153.831707 26.4 153.256098 26.973913 152.608537 27.2608696 151.817073 27.2608696 151.02561 27.2608696 150.306098 26.973913 149.730488 26.4 149.154878 25.826087 148.867073 25.1804348 148.867073 24.3913043L148.867073 10.3304348C148.867073 8.89565217 149.154878 7.60434783 149.658537 6.38478261 150.162195 5.16521739 150.881707 4.08913043 151.817073 3.15652174 152.752439 2.22391304 153.831707 1.50652174 155.126829.932608696 156.421951.430434783 157.789024.143478261 159.228049.0717391304zM159.228049 5.6673913C158.580488 5.6673913 157.932927 5.81086957 157.429268 6.02608696 156.853659 6.24130435 156.35 6.6 155.918293 7.03043478 155.486585 7.46086957 155.126829 7.96304348 154.839024 8.53695652 154.55122 9.11086957 154.479268 9.75652174 154.479268 10.4021739 154.479268 11.0478261 154.623171 11.6934783 154.839024 12.2673913 155.054878 12.8413043 155.414634 13.3434783 155.918293 13.773913 156.35 14.2043478 156.853659 14.5630435 157.429268 14.85 158.004878 15.1369565 158.580488 15.2086957 159.228049 15.2086957 159.87561 15.2086957 160.523171 15.0652174 161.09878 14.85 161.67439 14.5630435 162.178049 14.276087 162.609756 13.773913 163.041463 13.3434783 163.40122 12.8413043 163.617073 12.2673913 163.832927 11.6934783 163.976829 11.0478261 163.976829 10.4021739 163.904878 9.11086957 163.473171 7.96304348 162.537805 7.10217391 161.746341 6.16956522 160.595122 5.6673913 159.228049 5.6673913zM191.462195 23.4586957C191.75 24.176087 191.75 24.8934783 191.390244 25.6108696 191.102439 26.3282609 190.526829 26.8304348 189.807317 27.1891304 189.087805 27.476087 188.368293 27.476087 187.576829 27.1173913 186.857317 26.7586957 186.353659 26.2565217 186.065854 25.4673913L185.706098 24.5347826 175.129268 24.5347826 174.769512 25.4673913C174.481707 26.2565217 173.978049 26.7586957 173.258537 27.1173913 172.539024 27.476087 171.819512 27.476087 171.1 27.1891304 170.380488 26.9021739 169.804878 26.3282609 169.517073 25.6108696 169.229268 24.8934783 169.157317 24.176087 169.445122 23.4586957L177.791463 2.08043478C178.007317 1.57826087 178.367073 1.14782609 178.870732.789130435 179.37439.430434783 179.878049.215217391 180.453659.215217391 181.029268.215217391 181.532927.358695652 182.036585.717391304 182.540244 1.07608696 182.9 1.50652174 183.115854 2.08043478L191.462195 23.4586957zM176.928049 19.9434783L183.979268 19.9434783 180.453659 10.9043478 176.928049 19.9434783zM211.032927 21.5217391C211.82439 21.5217391 212.471951 21.8086957 213.047561 22.3826087 213.623171 22.9565217 213.910976 23.6021739 213.910976 24.3913043 213.910976 25.1804348 213.623171 25.8978261 213.047561 26.4717391 212.471951 27.0456522 211.82439 27.3326087 211.032927 27.3326087L197.937805 27.3326087C197.146341 27.3326087 196.426829 27.0456522 195.923171 26.4717391 195.347561 25.8978261 195.059756 25.2521739 195.059756 24.3913043L195.059756 3.01304348C195.059756 2.22391304 195.347561 1.57826087 195.923171 1.00434783 196.49878.430434783 197.218293.143478261 198.009756.143478261 198.729268.143478261 199.376829.430434783 200.02439 1.00434783 200.6 1.57826087 200.887805 2.22391304 200.887805 3.01304348L200.887805 21.5217391 211.032927 21.5217391zM227.221951 21.7369565C227.869512 21.5934783 228.445122 21.3782609 228.94878 21.0195652 229.380488 20.6608696 229.668293 20.0869565 229.740244 19.3695652 229.740244 18.723913 229.452439 18.15 229.020732 17.7913043 228.589024 17.4326087 228.013415 17.2173913 227.365854 17.073913L224.415854 16.5717391C223.336585 16.4282609 222.329268 16.1413043 221.393902 15.7826087 220.458537 15.423913 219.595122 14.85 218.803659 14.0608696 218.012195 13.3434783 217.436585 12.4108696 217.004878 11.4065217 216.573171 10.4021739 216.357317 9.32608696 216.357317 8.17826087 216.357317 7.10217391 216.573171 6.02608696 217.004878 5.02173913 217.436585 4.0173913 218.012195 3.22826087 218.803659 2.51086957 219.523171 1.79347826 220.458537 1.29130435 221.465854.860869565 222.185366.573913043 222.904878.358695652 223.696341.286956522 224.343902.143478261 225.063415.143478261 225.710976.143478261 226.502439.143478261 227.293902.215217391 227.941463.358695652 229.092683.573913043 230.171951.932608696 231.179268 1.50652174 231.682927 1.65 232.47439 2.29565217 233.553659 3.3 233.697561 3.44347826 233.841463 3.65869565 233.985366 3.94565217 234.129268 4.2326087 234.273171 4.44782609 234.345122 4.73478261 234.489024 5.52391304 234.417073 6.24130435 233.985366 6.88695652 233.553659 7.5326087 232.978049 7.96304348 232.186585 8.17826087 231.539024 8.32173913 231.035366 8.25 230.531707 8.03478261 230.1 7.81956522 229.668293 7.46086957 229.236585 7.10217391 228.804878 6.6 228.30122 6.24130435 227.869512 6.02608696 227.437805 5.81086957 226.790244 5.6673913 225.926829 5.6673913 225.063415 5.6673913 224.415854 5.73913043 223.840244 5.95434783 223.264634 6.16956522 222.832927 6.45652174 222.545122 6.81521739 222.185366 7.24565217 222.041463 7.67608696 222.041463 8.32173913 222.041463 9.03913043 222.257317 9.61304348 222.760976 10.1152174 223.264634 10.6173913 223.912195 10.8326087 224.703659 10.976087L227.437805 11.3347826C228.804878 11.55 230.1 11.9086957 231.323171 12.4108696 232.546341 12.9130435 233.409756 13.4869565 233.985366 14.1326087 234.560976 14.7782609 234.992683 15.4956522 235.208537 16.2130435 235.42439 16.9304348 235.568293 17.9347826 235.568293 19.0826087 235.568293 20.1586957 235.280488 21.1630435 234.920732 22.1673913 234.489024 23.1717391 233.913415 24.0326087 233.121951 24.8217391 232.402439 25.5391304 231.467073 26.1847826 230.459756 26.6152174 229.452439 27.0456522 228.373171 27.2608696 227.293902 27.3326087L226.646341 27.4043478C226.358537 27.4043478 225.99878 27.4043478 225.710976 27.4043478 224.919512 27.4043478 224.128049 27.3326087 223.480488 27.1891304 222.329268 26.973913 221.25 26.6152174 220.242683 26.0413043 218.731707 25.1804348 217.508537 24.0326087 216.645122 22.4543478 216.50122 22.2391304 216.429268 22.023913 216.357317 21.7369565 216.285366 21.45 216.213415 21.1630435 216.213415 20.9478261 216.213415 20.1586957 216.50122 19.4413043 217.076829 18.9391304 217.652439 18.3652174 218.3 18.0782609 219.091463 18.0782609 219.739024 18.0782609 220.242683 18.2217391 220.602439 18.5804348 221.034146 18.9391304 221.321951 19.2978261 221.681707 19.8 222.041463 20.373913 222.473171 20.8043478 222.976829 21.1630435 223.552439 21.5217391 223.984146 21.7369565 224.343902 21.8086957 224.703659 21.8804348 225.063415 21.9521739 225.495122 21.9521739 225.854878 21.8086957 226.430488 21.8086957 227.221951 21.7369565z"/>
    </g>
  </g>
</svg>
